<svg width="268" height="211" viewBox="0 0 268 211" fill="none" xmlns="http://www.w3.org/2000/svg">
<circle cx="4.76829" cy="5.37449" r="4.76829" fill="#F4F4F4"/>
<circle cx="4.76829" cy="33.9844" r="4.76829" fill="#F4F4F4"/>
<circle cx="4.76829" cy="62.5941" r="4.76829" fill="#F4F4F4"/>
<circle cx="4.76829" cy="91.2038" r="4.76829" fill="#F4F4F4"/>
<circle cx="4.76829" cy="119.814" r="4.76829" fill="#F4F4F4"/>
<circle cx="4.76829" cy="148.423" r="4.76829" fill="#F4F4F4"/>
<circle cx="4.76829" cy="177.033" r="4.76829" fill="#F4F4F4"/>
<circle cx="4.76829" cy="205.643" r="4.76829" fill="#F4F4F4"/>
<circle cx="33.3782" cy="5.37449" r="4.76829" fill="#F4F4F4"/>
<circle cx="33.3782" cy="33.9844" r="4.76829" fill="#F4F4F4"/>
<circle cx="33.3782" cy="62.5941" r="4.76829" fill="#F4F4F4"/>
<circle cx="33.3782" cy="91.2038" r="4.76829" fill="#F4F4F4"/>
<circle cx="33.3782" cy="119.814" r="4.76829" fill="#F4F4F4"/>
<circle cx="33.3782" cy="148.423" r="4.76829" fill="#F4F4F4"/>
<circle cx="33.3782" cy="177.033" r="4.76829" fill="#F4F4F4"/>
<circle cx="33.3782" cy="205.643" r="4.76829" fill="#F4F4F4"/>
<circle cx="61.988" cy="5.37449" r="4.76829" fill="#F4F4F4"/>
<circle cx="61.988" cy="33.9844" r="4.76829" fill="#F4F4F4"/>
<circle cx="61.988" cy="62.5941" r="4.76829" fill="#F4F4F4"/>
<circle cx="61.988" cy="91.2038" r="4.76829" fill="#F4F4F4"/>
<circle cx="61.988" cy="119.814" r="4.76829" fill="#F4F4F4"/>
<circle cx="61.988" cy="148.423" r="4.76829" fill="#F4F4F4"/>
<circle cx="61.988" cy="177.033" r="4.76829" fill="#F4F4F4"/>
<circle cx="61.988" cy="205.643" r="4.76829" fill="#F4F4F4"/>
<circle cx="90.5974" cy="5.37449" r="4.76829" fill="#F4F4F4"/>
<circle cx="90.5974" cy="33.9844" r="4.76829" fill="#F4F4F4"/>
<circle cx="90.5974" cy="62.5941" r="4.76829" fill="#F4F4F4"/>
<circle cx="90.5974" cy="91.2038" r="4.76829" fill="#F4F4F4"/>
<circle cx="90.5974" cy="119.814" r="4.76829" fill="#F4F4F4"/>
<circle cx="90.5974" cy="148.423" r="4.76829" fill="#F4F4F4"/>
<circle cx="90.5974" cy="177.033" r="4.76829" fill="#F4F4F4"/>
<circle cx="90.5974" cy="205.643" r="4.76829" fill="#F4F4F4"/>
<circle cx="119.207" cy="5.37449" r="4.76829" fill="#F4F4F4"/>
<circle cx="119.207" cy="33.9844" r="4.76829" fill="#F4F4F4"/>
<circle cx="119.207" cy="62.5941" r="4.76829" fill="#F4F4F4"/>
<circle cx="119.207" cy="91.2038" r="4.76829" fill="#F4F4F4"/>
<circle cx="119.207" cy="119.814" r="4.76829" fill="#F4F4F4"/>
<circle cx="119.207" cy="148.423" r="4.76829" fill="#F4F4F4"/>
<circle cx="119.207" cy="177.033" r="4.76829" fill="#F4F4F4"/>
<circle cx="119.207" cy="205.643" r="4.76829" fill="#F4F4F4"/>
<circle cx="147.817" cy="5.37449" r="4.76829" fill="#F4F4F4"/>
<circle cx="147.817" cy="33.9844" r="4.76829" fill="#F4F4F4"/>
<circle cx="147.817" cy="62.5941" r="4.76829" fill="#F4F4F4"/>
<circle cx="147.817" cy="91.2038" r="4.76829" fill="#F4F4F4"/>
<circle cx="147.817" cy="119.814" r="4.76829" fill="#F4F4F4"/>
<circle cx="147.817" cy="148.423" r="4.76829" fill="#F4F4F4"/>
<circle cx="147.817" cy="177.033" r="4.76829" fill="#F4F4F4"/>
<circle cx="147.817" cy="205.643" r="4.76829" fill="#F4F4F4"/>
<circle cx="176.427" cy="5.37449" r="4.76829" fill="#F4F4F4"/>
<circle cx="176.427" cy="33.9844" r="4.76829" fill="#F4F4F4"/>
<circle cx="176.427" cy="62.5941" r="4.76829" fill="#F4F4F4"/>
<circle cx="176.427" cy="91.2038" r="4.76829" fill="#F4F4F4"/>
<circle cx="176.427" cy="119.814" r="4.76829" fill="#F4F4F4"/>
<circle cx="176.427" cy="148.423" r="4.76829" fill="#F4F4F4"/>
<circle cx="176.427" cy="177.033" r="4.76829" fill="#F4F4F4"/>
<circle cx="176.427" cy="205.643" r="4.76829" fill="#F4F4F4"/>
<circle cx="205.036" cy="5.37449" r="4.76829" fill="#F4F4F4"/>
<circle cx="205.036" cy="33.9844" r="4.76829" fill="#F4F4F4"/>
<circle cx="205.036" cy="62.5941" r="4.76829" fill="#F4F4F4"/>
<circle cx="205.036" cy="91.2038" r="4.76829" fill="#F4F4F4"/>
<circle cx="205.036" cy="119.814" r="4.76829" fill="#F4F4F4"/>
<circle cx="205.036" cy="148.423" r="4.76829" fill="#F4F4F4"/>
<circle cx="205.036" cy="177.033" r="4.76829" fill="#F4F4F4"/>
<circle cx="205.036" cy="205.643" r="4.76829" fill="#F4F4F4"/>
<circle cx="233.646" cy="5.37449" r="4.76829" fill="#F4F4F4"/>
<circle cx="233.646" cy="33.9844" r="4.76829" fill="#F4F4F4"/>
<circle cx="233.646" cy="62.5941" r="4.76829" fill="#F4F4F4"/>
<circle cx="233.646" cy="91.2038" r="4.76829" fill="#F4F4F4"/>
<circle cx="233.646" cy="119.814" r="4.76829" fill="#F4F4F4"/>
<circle cx="233.646" cy="148.423" r="4.76829" fill="#F4F4F4"/>
<circle cx="233.646" cy="177.033" r="4.76829" fill="#F4F4F4"/>
<circle cx="233.646" cy="205.643" r="4.76829" fill="#F4F4F4"/>
<circle cx="262.256" cy="5.37449" r="4.76829" fill="#F4F4F4"/>
<circle cx="262.256" cy="33.9844" r="4.76829" fill="#F4F4F4"/>
<circle cx="262.256" cy="62.5941" r="4.76829" fill="#F4F4F4"/>
<circle cx="262.256" cy="91.2038" r="4.76829" fill="#F4F4F4"/>
<circle cx="262.256" cy="119.814" r="4.76829" fill="#F4F4F4"/>
<circle cx="262.256" cy="148.423" r="4.76829" fill="#F4F4F4"/>
<circle cx="262.256" cy="177.033" r="4.76829" fill="#F4F4F4"/>
<circle cx="262.256" cy="205.643" r="4.76829" fill="#F4F4F4"/>
</svg>
