<svg width="322" height="335" viewBox="0 0 322 335" fill="none" xmlns="http://www.w3.org/2000/svg">
<path d="M304.602 215.482C296.948 239.031 283.775 259.49 265.965 276.637L265.892 276.564C257.576 269.867 248.671 263.832 239.251 258.828L238.368 258.607C243.078 245.14 246.684 230.2 249.112 215.482H232.775C230.493 227.992 227.255 241.018 222.987 253.603L223.576 251.616C206.281 244.551 188.472 240.503 169.338 239.62V215.482H153.147V239.399C134.013 240.282 115.541 244.33 98.0995 251.395H98.026L97.9524 251.616C94.0519 240.282 90.8874 227.919 88.6796 215.408H72.4156C74.7705 230.127 78.303 244.404 83.0866 258.534C72.7835 263.979 63.8788 269.793 55.6363 276.417L55.5627 276.637C37.606 259.49 24.4329 239.031 16.7792 215.482H0C8.90476 245.655 26.1255 272.001 48.9394 292.46H49.0866C49.5281 292.975 50.0433 293.343 50.5584 293.711C81.026 320.425 120.104 335.07 160.58 334.997C201.277 335.07 240.502 320.204 271.043 293.343C289 277.741 303.351 258.681 313.212 237.044C316.45 229.979 319.173 222.105 321.381 215.482H304.602ZM83.013 258.386L83.6017 260.3C83.3809 259.711 83.1601 259.049 83.013 258.386ZM112.745 310.932C96.5541 305.486 81.3203 297.464 67.8528 286.94C74.0346 282.083 80.9523 277.521 88.3117 273.546L89.1212 273.178C94.7878 287.014 102.883 299.819 112.745 310.932C112.818 311.005 112.892 311.153 112.965 311.153C112.965 311.153 113.039 311.226 113.039 311.3L112.965 311.226C112.892 311.153 112.818 311.005 112.745 310.932ZM153.147 318.144C134.013 313.875 116.203 294.594 103.84 266.334C118.264 260.3 135.117 256.399 152.632 255.443H153.147V318.144ZM169.338 318.144V255.369C187.736 256.326 203.043 260.153 218.203 266.334L219.087 266.702C218.792 266.555 218.498 266.482 218.277 266.334C205.913 294.521 188.472 313.949 169.338 318.144ZM209.593 310.932L208.489 311.226C218.277 300.187 226.299 287.676 232.112 274.135L232.554 273.252C240.649 277.594 247.273 282.083 253.675 287.088C240.502 297.464 225.563 305.486 209.593 310.932ZM272.368 43.053L272.221 42.6851C271.779 42.2435 271.338 41.7284 270.822 41.3604V41.2868C240.355 14.6461 201.203 -0.146098 160.654 0.00108795C118.338 0.00108795 79.7013 15.75 50.264 41.6548C49.9697 41.8755 49.6753 42.0963 49.4545 42.3907C31.7186 58.066 17.5887 77.7889 7.87445 99.3517C5.59307 104.503 3.53247 110.317 1.76623 115.469H18.6926C26.4935 93.3907 39.0043 74.8452 55.4892 59.0227L55.5627 58.8019C63.5844 65.3517 72.6363 71.2392 82.2034 76.3171L83.0866 77.1266C78.9653 89.0487 75.6536 101.56 73.2251 115.542H89.7099C91.9177 103.031 94.8614 92.8019 98.5411 82.1309L98.026 83.75C115.394 90.8885 134.013 94.7889 152.706 95.6721L153.294 95.5985V115.395H169.485V95.4513C187.883 94.5682 206.502 90.5206 224.017 83.4556H223.87L224.9 83.0141C224.532 83.1612 224.164 83.6764 223.796 83.8236C227.182 93.6115 229.905 104.282 232.039 115.321H248.45C246.095 101.339 242.857 89.2695 238.662 76.8322L238.589 76.685L238 74.698C238.221 75.3604 238.441 75.8755 238.662 76.5379C248.377 71.4599 257.576 65.7933 266.186 58.8755C282.671 74.698 295.182 93.3171 302.983 115.395H319.983C310.415 86.6937 293.931 62.2608 272.368 43.053ZM89.2684 60.7154L88.9004 61.5985C81.4675 57.6244 74.329 52.9881 67.7056 47.763C80.9523 37.3864 95.8181 29.2911 111.788 23.8452L112.818 23.5509C103.104 34.6634 95.1558 47.1742 89.2684 60.7154ZM153.147 79.4816C135.485 78.5985 118.779 74.7716 102.81 68.1483L103.693 68.5162C116.13 40.3301 133.645 20.9751 152.926 16.7067L153.147 16.7803V79.4816ZM169.558 79.4816H169.338V16.7803C188.472 21.0487 205.766 40.3301 218.13 68.5898C203.706 74.6244 187.074 78.5249 169.558 79.4816ZM233.29 61.3041L232.48 61.6721C226.593 47.8366 218.866 35.105 208.931 23.7716C208.857 23.6981 208.71 23.6981 208.636 23.6981C208.563 23.6245 208.783 23.5509 208.71 23.4773L209.078 23.6245V23.6981H208.857C208.857 23.7716 208.931 23.7716 208.931 23.7716C225.121 29.2175 240.208 37.3864 253.675 47.8366C247.493 52.7673 240.576 57.3301 233.29 61.3041Z" fill="black"/>
<path d="M311.151 101.192H10.5972V114.88H311.151V101.192Z" fill="black"/>
<path d="M142.528 143.071C142.528 143.071 107.203 130.34 75.1693 130.34C43.1353 130.34 11.6759 135.597 11.6759 135.597L10.5659 146.085L17.4872 150.784C21.8882 153.754 23.8209 183.94 41.4768 195.935C59.1458 207.939 104.422 208.311 119.348 201.928C134.236 195.545 148.601 171.192 148.601 160.314V154.33C152.192 151.892 169.704 151.644 173.648 154.33V160.323C173.648 171.201 188.013 195.563 202.9 201.928C217.853 208.311 263.129 207.93 280.785 195.926C298.48 183.931 300.373 153.754 304.814 150.766L311.696 146.067L310.586 135.571C310.586 135.571 279.139 130.314 247.092 130.314C215.058 130.314 179.733 143.062 179.733 143.062C171.82 140.952 151.16 141.2 142.515 143.062L142.528 143.071Z" fill="black"/>
<path d="M311.151 215.629H10.5972V229.317H311.151V215.629Z" fill="black"/>
</svg>
