<svg width="516" height="537" viewBox="0 0 516 537" fill="none" xmlns="http://www.w3.org/2000/svg">
<path d="M488.129 345.313C475.864 383.052 454.754 415.837 426.214 443.316L426.096 443.198C412.769 432.466 398.499 422.796 383.404 414.776L381.989 414.422C389.536 392.84 395.315 368.9 399.207 345.313H373.026C369.37 365.362 364.181 386.236 357.34 406.403L358.284 403.218C330.569 391.897 302.029 385.41 271.366 383.995V345.313H245.421V383.641C214.758 385.057 185.157 391.543 157.206 402.865H157.088L156.97 403.218C150.72 385.057 145.649 365.244 142.111 345.195H116.047C119.821 368.782 125.482 391.661 133.148 414.304C116.637 423.031 102.367 432.348 89.1582 442.962L89.0403 443.316C60.2643 415.837 39.1541 383.052 26.889 345.313H0C14.27 393.666 41.8666 435.886 78.4262 468.672H78.6621C79.3697 469.497 80.1952 470.087 81.0207 470.677C129.845 513.487 192.468 536.956 257.332 536.838C322.55 536.956 385.409 513.133 434.351 470.087C463.127 445.085 486.124 414.54 501.928 379.867C507.117 368.546 511.48 355.927 515.018 345.313H488.129ZM133.03 414.068L133.973 417.135C133.619 416.191 133.266 415.13 133.03 414.068ZM180.675 498.273C154.73 489.546 130.317 476.691 108.735 459.827C118.642 452.043 129.728 444.731 141.521 438.363L142.818 437.773C151.899 459.945 164.872 480.465 180.675 498.273C180.793 498.391 180.911 498.627 181.029 498.627C181.029 498.627 181.147 498.745 181.147 498.863L181.029 498.745C180.911 498.627 180.793 498.391 180.675 498.273ZM245.421 509.831C214.758 502.991 186.218 472.092 166.405 426.805C189.52 417.135 216.527 410.884 244.595 409.351H245.421V509.831ZM271.366 509.831V409.233C300.85 410.766 325.38 416.899 349.675 426.805L351.09 427.395C350.618 427.159 350.146 427.041 349.793 426.805C329.98 471.974 302.029 503.109 271.366 509.831ZM335.876 498.273L334.107 498.745C349.793 481.055 362.647 461.006 371.964 439.306L372.672 437.891C385.645 444.849 396.259 452.043 406.519 460.063C385.409 476.691 361.468 489.546 335.876 498.273ZM436.474 68.9932L436.238 68.4035C435.531 67.6959 434.823 66.8704 433.998 66.2807V66.1628C385.173 23.4706 322.432 -0.234125 257.45 0.00174346C189.638 0.00174346 127.723 25.2396 80.549 66.7525C80.0773 67.1063 79.6055 67.4601 79.2517 67.9318C50.8296 93.0518 28.1863 124.658 12.6189 159.213C8.96299 167.468 5.66084 176.785 2.83042 185.04H29.9553C42.4563 149.66 62.5051 119.941 88.9223 94.5849L89.0403 94.2311C101.895 104.727 116.401 114.162 131.732 122.299L133.148 123.597C126.543 142.702 121.236 162.751 117.344 185.158H143.762C147.3 165.109 152.017 148.717 157.914 131.616L157.088 134.211C184.921 145.65 214.758 151.901 244.713 153.316L245.657 153.198V184.922H271.602V152.962C301.086 151.547 330.923 145.061 358.991 133.739H358.756L360.407 133.031C359.817 133.267 359.227 134.093 358.638 134.329C364.063 150.014 368.426 167.114 371.846 184.804H398.146C394.372 162.397 389.183 143.056 382.46 123.125L382.342 122.889L381.399 119.705C381.753 120.766 382.107 121.592 382.46 122.653C398.028 114.516 412.769 105.435 426.568 94.349C452.985 119.705 473.034 149.542 485.535 184.922H512.778C497.446 138.928 471.029 99.774 436.474 68.9932ZM143.054 97.2974L142.464 98.7126C130.553 92.3441 119.113 84.9143 108.499 76.541C129.728 59.9123 153.55 46.9395 179.142 38.2124L180.793 37.7407C165.226 55.5487 152.489 75.5975 143.054 97.2974ZM245.421 127.371C217.117 125.955 190.346 119.823 164.754 109.209L166.169 109.798C186.1 64.6296 214.168 33.613 245.067 26.7728L245.421 26.8907V127.371ZM271.72 127.371H271.366V26.8907C302.029 33.7309 329.744 64.6296 349.557 109.916C326.442 119.587 299.789 125.837 271.72 127.371ZM373.851 98.2409L372.554 98.8305C363.119 76.6589 350.736 56.2563 334.815 38.0945C334.697 37.9765 334.461 37.9765 334.343 37.9765C334.225 37.8586 334.579 37.7407 334.461 37.6227L335.051 37.8586V37.9765H334.697C334.697 38.0945 334.815 38.0945 334.815 38.0945C360.76 46.8216 384.937 59.9123 406.519 76.6589C396.612 84.5605 385.527 91.8724 373.851 98.2409Z" fill="black"/>
<path d="M146.356 233.629H175.84V263.113H146.356V233.629ZM175.84 292.596V263.113H205.323V292.596H175.84ZM352.859 233.629V263.113H382.342V292.596H352.859V263.113H323.375V233.629H352.859ZM470.793 204.146H87.271V233.629H57.7875V263.113H28.304V322.08H57.7875V263.113H116.755V292.596H146.238V322.08H234.689V292.596H264.172V263.113H293.656V292.596H323.139V322.08H411.59V292.596H441.073V263.113H470.557V204.146H470.793Z" fill="black"/>
<path d="M498.625 162.161H16.9822V184.097H498.625V162.161Z" fill="black"/>
<path d="M498.625 345.549H16.9822V367.484H498.625V345.549Z" fill="black"/>
</svg>
